<?xml version="1.0" encoding="UTF-8"?>
<svg version="1.1" viewBox="0 0 1373 2048" width="409" height="610" xmlns="http://www.w3.org/2000/svg">
<path transform="translate(703,582)" d="m0 0 30 2 30 4 26 6 33 11 18 8 23 12 13 8 15 10 14 11 14 12 16 15 12 13 12 15 11 15v3l-16 8-18 10-19 9-3 2-4-1-11-13-11-14-11-11-11-9-20-15-21-13-23-11-27-10-25-6-23-3-9-1h-32l-28 4-24 6-18 6-19 8-22 12-19 12-18 14-19 19-11 12-13 18-9 14-8 16-9 20-9 27-6 26-2 18-1 13v22l2 25 6 27 6 20 8 19 10 20 12 19 10 13-1 9-12 47-9 36-5 21 24-11 23-9 13-5 28-12 21-8 5 1 21 10 33 11 19 3 20 2h40l33-4 12-3 27-9 24-11 17-10 17-12 10-8 14-12 14-14 20-26 4 1 28 15 19 11 7 4-2 6-12 15-8 11-12 14-19 19-11 9-12 9-14 10-18 11-23 12-23 10-27 9-24 5-19 3-25 2h-35l-25-2-24-4-22-5-19-7-9-4-4-1-32 14-21 8-28 12-31 13-34 14-30 13-21 8h-3l2-11 32-128 5-22 10-40 1-5-7-11-7-12-18-42-7-22-6-28-4-27v-54l4-27 5-23 7-24 7-19 13-29 10-18 7-11 11-16 22-26 8-8 7-8 12-11 14-11 31-20 20-11 27-12 23-8 23-6 26-5 22-2z" fill="#063236"/>
<path transform="translate(513,753)" d="m0 0h16l28 4 24 6 27 9 14 6 18 10 16 11 14 12 8 7 7 8v295l-4-4-10-13-15-16-10-8-14-10-15-9-21-11-25-9-15-4-31-4-12-2-1-1v-276z" fill="#8C9C8D"/>
<path transform="translate(878,753)" d="m0 0h12l1 2v35l-1 1-29 2-26 5-20 6-20 8-15 8-16 11-9 6v74l22-12 20-8 18-6 22-5 16-2h11v36l-29 5-27 8-20 9-13 7-19 13-1 1-1 79 11-6 23-12 23-9 15-5 27-6 15-2 22-1 1 1v36l-2 1-25 2-19 3-24 7-16 6-21 10-16 11-13 10-11 9-9 9-9 11-8 10h-2v-296l16-15 12-10 13-9 20-12 10-5 13-5 31-9 19-4z" fill="#AA7F58"/>
<path transform="translate(967,1368)" d="m0 0h81l1 1v19l-2 1h-73v36h70l1 2-1 17h-70v40h76v20l-1 1h-98l-1-1v-134l1-1z" fill="#AA8059"/>
<path transform="translate(273,1364)" d="m0 0h12l13 2 16 7 9 7 8 11 4 8 3 11h-25l-6-11-5-6-8-5-7-2h-16l-10 3-10 7-6 8-4 8-2 9-1 10v13l2 13 4 11 5 7 11 8 8 3 6 1h9l12-3 10-9 4-6 3-9 1-8h26l-1 10-5 13-7 12-11 11-16 8-8 2-16 1-15-2-16-7-13-11-8-11-6-12-4-15-1-8v-12l2-13 4-12 8-15 9-10 9-8 13-6z" fill="#083337"/>
<path transform="translate(1135,1368)" d="m0 0h18l4 1v135l-3 1h-16l-1-5v-6l-8 7-12 6-6 1h-13l-10-3-9-5-5-4-6-8-6-13-3-13 1-18 3-11 5-12 10-11 8-4 7-2 11-1 13 2 10 4 8 8zm-34 52-10 6-6 9-3 8-1 5v16l3 10 6 9 8 5 5 2h11l10-4 5-5 5-8 3-13-1-16-3-10-6-8-9-5-4-1z" fill="#AA8058"/>
<path transform="translate(715,1403)" d="m0 0h10l16 4 8 4 9 9 8 14 3 11 1 15-2 2h-72l1 10 6 10 10 6 8 2 9-2 8-4 5-6 2-4 22-1-1 5-6 12-6 7-9 6-11 4-7 1h-14l-9-2-13-7-9-9-8-16-2-8v-20l5-15 6-10 8-9 9-5 9-3zm-1 17-10 6-6 8-3 8v4l49 1 1-5-4-11-5-6-8-4-4-1z" fill="#093438"/>
<path transform="translate(394,1403)" d="m0 0h10l12 2 11 4 10 9 6 9 4 9 2 9v18l-4 16-6 10-4 5-10 8-12 5-5 1h-19l-13-4-10-6-8-8-7-14-3-11v-17l2-10 6-15 6-8 8-6 16-5zm-2 17-10 5-7 8-5 12-1 6v10l4 13 6 8 6 5 7 3h12l10-4 6-7 5-10 1-4v-20l-4-11-6-8-5-4-6-2z" fill="#083337"/>
<path transform="translate(617,1403)" d="m0 0h13l12 3 8 5 6 9 2 10v74l-5 1h-17l-1-70-3-8-5-4-8-2-10 1-8 5-5 8-2 6-1 63-1 1h-22v-99h21v13l5-5 8-7z" fill="#083337"/>
<path transform="translate(507,1403)" d="m0 0h16l14 4 6 4 5 8 2 6 1 7v73h-22l-1-70-4-9-6-4-3-1h-11l-10 5-6 9-2 11v58l-3 1h-19l-1-42v-57h21l1 12 10-10z" fill="#083437"/>
<path transform="translate(819,1403)" d="m0 0h12l14 3 10 4 9 8 6 12 2 8-2 1h-21l-4-9-5-5-7-4h-15l-8 5-6 7-4 11-1 6v12l2 9 6 12 4 2 10 4h9l10-4 7-9 2-7 21-1-1 9-4 10-8 10-9 6-10 4-5 1h-18l-11-4-10-6-7-6-8-14-3-11v-22l5-16 7-11 9-8 12-5z" fill="#083437"/>
<path transform="translate(892,1376)" d="m0 0h22l1 30h18l1 1v9l-1 6h-18v16l1 47 2 1 15 1v17l-1 1-10 1h-11l-10-4-5-4-3-6-1-5v-66l-4 1h-12l-1-16h17z" fill="#0A3538"/>
</svg>
